# xmcd CD database file
#
# Track frame offsets:
#	150
#	16130
#	47320
#	60420
#	74170
#	94467
#	110047
#	133730
#	147672
#	162667
#	181677
#	201975
#	223947
#	250300
#	268650
#	282152
#	300782
#
# Disc length: 4195 seconds
#
# Revision: 0
# Processed by: cddbd v1.5.1PL0 Copyright (c) Steve Scherf et al.
# Submitted via: CDex 1.51
#
DISCID=08106111
DTITLE=TOOTS THIELEMANS - THE BEST OF TOOTS THIELEMANS
DYEAR=2002
DGENRE=Jazz
TTITLE0=STAR DUST
TTITLE1=VELAS
TTITLE2=BLUESETTE
TTITLE3=FELICIA AND BIANCA
TTITLE4=CORACAO VAGABUNDO
TTITLE5=MANHA DE CARNAVAL
TTITLE6=OCEANO
TTITLE7=TRAVESSIA
TTITLE8=SAMBA DE UNA NOTA SO
TTITLE9=WALTZ FOR DEBBY
TTITLE10=TAKE FIVE
TTITLE11=BLUE IN GREEN
TTITLE12=LA VIA EN ROSE
TTITLE13=HYMME A L'AMOUR
TTITLE14=OLD FRIENDS
TTITLE15=LES MOULINS DE MON COEUR
TTITLE16=LITTLE WING
EXTD=YEAR: 2002
EXTT0=
EXTT1=
EXTT2=
EXTT3=
EXTT4=
EXTT5=
EXTT6=
EXTT7=
EXTT8=
EXTT9=
EXTT10=
EXTT11=
EXTT12=
EXTT13=
EXTT14=
EXTT15=
EXTT16=
PLAYORDER=
